# xmcd
#
# Track frame offsets: 
#        150
#        15223
#        26456
#        41343
#        55993
#        70387
#        81268
#        96942
#        114015
#        124402
#        138014
#        152255
#        165624
#
# Disc length: 2421 seconds
#
# Revision: 0
# Processed by: cddbd v1.5.2PL0 Copyright (c) Steve Scherf et al.
# Submitted via: ExactAudioCopyFreeDBPlugin 1.0
#
DISCID=9409730d
DTITLE=Bo Porter - Try Your Luck
DYEAR=2010
DGENRE=Country
TTITLE0=It Don't Matter
TTITLE1=Speak Your Mind
TTITLE2=Mexican Lettuce
TTITLE3=Work With Me Baby
TTITLE4=Take My Advice
TTITLE5=Don't Do It
TTITLE6=It Ain't Over Yet
TTITLE7=Rattle Your Brain
TTITLE8=Heart Full Of Love
TTITLE9=I Didn't See That Comin'
TTITLE10=Real Good Day
TTITLE11=Take Me Back To Luckenbach
TTITLE12=Bury Me On Sunday
EXTD=
EXTT0=
EXTT1=
EXTT2=
EXTT3=
EXTT4=
EXTT5=
EXTT6=
EXTT7=
EXTT8=
EXTT9=
EXTT10=
EXTT11=
EXTT12=
PLAYORDER=
